# xmcd
#
# Track frame offsets:
#	150
#	57767
#	123321
#	171364
#	190884
#	227791
#	269757
#	314900
#
# Disc length: 4466 seconds
#
# Revision: 1
# Processed by: cddbd v1.5.2PL0 Copyright (c) Steve Scherf et al.
# Submitted via: audiograbber 1.83.01
#
DISCID=79117008
DTITLE=Grateful Dead - 93-03-24 Dean Smith Centre, Chapel Hill NC
DYEAR=1900
DGENRE=
TTITLE0=Crazy Fingers
TTITLE1=Drums
TTITLE2=Space
TTITLE3=Spanish Jam
TTITLE4=GDTRFB
TTITLE5=Throwing Stones
TTITLE6=Not Fade Away
TTITLE7=Lucy In The Sky
EXTD=
EXTT0=
EXTT1=
EXTT2=
EXTT3=
EXTT4=
EXTT5=
EXTT6=
EXTT7=
PLAYORDER=
